<mxfile host="app.diagrams.net" modified="2023-12-30T14:44:16.191Z" agent="Mozilla/5.0 (Macintosh; Intel Mac OS X 10_15_7) AppleWebKit/537.36 (KHTML, like Gecko) Chrome/120.0.0.0 Safari/537.36" etag="jYD1oymWlKByv-fEOP0-" version="22.1.16" type="github">
  <diagram name="Page-1" id="jKwXqTW0s1e_ha4R1b7n">
    <mxGraphModel dx="1434" dy="761" grid="1" gridSize="10" guides="1" tooltips="1" connect="1" arrows="1" fold="1" page="1" pageScale="1" pageWidth="827" pageHeight="1169" math="0" shadow="0">
      <root>
        <mxCell id="0" />
        <mxCell id="1" parent="0" />
        <mxCell id="F45thFIv4wYP87FCnGFc-1" value="BeanFactory" style="rounded=0;whiteSpace=wrap;html=1;" vertex="1" parent="1">
          <mxGeometry x="340" y="340" width="90" height="40" as="geometry" />
        </mxCell>
        <mxCell id="F45thFIv4wYP87FCnGFc-2" value="ApplicationContext" style="rounded=0;whiteSpace=wrap;html=1;" vertex="1" parent="1">
          <mxGeometry x="240" y="260" width="130" height="40" as="geometry" />
        </mxCell>
      </root>
    </mxGraphModel>
  </diagram>
</mxfile>
